<svg width="103" height="102" viewBox="0 0 103 102" fill="none" xmlns="http://www.w3.org/2000/svg">
<circle cx="9.5" cy="9.5" r="9.5" transform="matrix(1 0 0 -1 43 19)" fill="#2E26AB"/>
<circle cx="9.5" cy="9.5" r="9.5" transform="matrix(1 0 0 -1 21 24)" fill="#3C2FD7"/>
<circle cx="9.5" cy="9.5" r="9.5" transform="matrix(1 0 0 -1 5 40)" fill="#4B40F3"/>
<circle cx="9.5" cy="9.5" r="9.5" transform="matrix(1 0 0 -1 0 61)" fill="#6165FF"/>
<circle cx="9.5" cy="9.5" r="9.5" transform="matrix(1 0 0 -1 7 80)" fill="#6364FF"/>
<circle cx="9.5" cy="9.5" r="9.5" transform="matrix(1 0 0 -1 21 97)" fill="#8490FF"/>
<circle cx="9.5" cy="9.5" r="9.5" transform="matrix(1 0 0 -1 42 102)" fill="#AFBFFF"/>
<circle cx="9.5" cy="9.5" r="9.5" transform="matrix(1 0 0 -1 63 97)" fill="#ADC0FF"/>
<circle cx="9.5" cy="9.5" r="9.5" transform="matrix(1 0 0 -1 78 80)" fill="#D6E2FF"/>
<circle cx="9.5" cy="9.5" r="9.5" transform="matrix(1 0 0 -1 84 61)" fill="#D6E2FF"/>
<circle cx="9.5" cy="9.5" r="9.5" transform="matrix(1 0 0 -1 78 40)" fill="#F3FAFF"/>
</svg>
