<?xml version="1.0" standalone="no"?>
<!DOCTYPE svg PUBLIC "-//W3C//DTD SVG 1.1//EN" "http://www.w3.org/Graphics/SVG/1.1/DTD/svg11.dtd" >
<svg xmlns="http://www.w3.org/2000/svg">
<metadata>Generated by IcoMoon</metadata>
<defs>
<font id="icomoon" horiz-adv-x="1024">
<font-face units-per-em="1024" ascent="960" descent="-64" />
<missing-glyph horiz-adv-x="1024" />
<glyph unicode="&#x20;" horiz-adv-x="512" d="" />
<glyph unicode="&#xe900;" glyph-name="save" d="M810.667-0c35.328 0 67.413 14.379 90.496 37.504s37.504 55.168 37.504 90.496v469.333c0 10.923-4.181 21.845-12.501 30.165l-213.333 213.333c-7.723 7.723-18.389 12.501-30.165 12.501h-469.333c-35.328 0-67.413-14.379-90.496-37.504s-37.504-55.168-37.504-90.496v-597.333c0-35.328 14.379-67.413 37.504-90.496s55.168-37.504 90.496-37.504zM341.333 85.334v256h341.333v-256zM256 768v-170.667c0-23.552 19.115-42.667 42.667-42.667h341.333c23.552 0 42.667 19.115 42.667 42.667s-19.115 42.667-42.667 42.667h-298.667v128h323.669l188.331-188.331v-451.669c0-11.776-4.736-22.4-12.501-30.165s-18.389-12.501-30.165-12.501h-42.667v298.667c0 23.552-19.115 42.667-42.667 42.667h-426.667c-23.552 0-42.667-19.115-42.667-42.667v-298.667h-42.667c-11.776 0-22.4 4.736-30.165 12.501s-12.501 18.389-12.501 30.165v597.333c0 11.776 4.736 22.4 12.501 30.165s18.389 12.501 30.165 12.501z" />
<glyph unicode="&#xe901;" glyph-name="gear" d="M512 286.56c-89.024 0-161.44 72.448-161.44 161.44s72.448 161.44 161.44 161.44 161.44-72.448 161.44-161.44-72.448-161.44-161.44-161.44zM512 541.504c-51.552 0-93.504-41.92-93.504-93.504s41.92-93.504 93.504-93.504 93.504 41.92 93.504 93.504-41.92 93.504-93.504 93.504zM515.392-53.344c-31.744 0-61.632 12.384-84.128 34.88s-34.88 52.32-34.88 84.128v3.84c-0.16 6.464-2.496 13.472-6.72 19.36-4.256 5.952-10.080 10.4-16.896 12.896-8.64 3.744-15.936 4.672-23.040 3.328-7.104-1.28-13.632-4.672-18.848-9.728l-2.24-2.24c-11.104-11.168-24.128-19.808-38.592-25.792-29.024-12.096-62.048-12.096-91.136 0-14.496 5.984-27.488 14.688-38.592 25.792-11.072 11.072-19.776 24.064-25.792 38.56-5.984 14.528-9.056 29.856-9.056 45.568s3.008 30.976 9.056 45.504c6.048 14.528 14.752 27.552 25.856 38.656l2.56 2.56c4.8 4.928 8.128 11.424 9.472 18.592 1.28 7.104 0.416 14.336-2.496 20.992-2.912 6.848-7.52 12.352-13.408 16.224s-12.736 5.952-19.776 5.984h-7.104c-31.744 0-61.632 12.384-84.128 34.88-22.176 22.112-34.88 52.8-34.88 84.128s12.704 62.016 34.88 84.128c22.464 22.464 52.32 34.816 84.128 34.816h3.84c6.464 0.16 13.408 2.496 19.36 6.752s10.4 10.080 12.896 16.896c3.744 8.64 4.608 15.936 3.328 22.976-1.28 7.168-4.672 13.664-9.728 18.848l-2.304 2.304c-11.168 11.168-19.808 24.128-25.792 38.656-5.984 14.432-9.056 29.792-9.056 45.504s3.072 31.072 9.12 45.568c5.952 14.432 14.656 27.456 25.792 38.56 11.104 11.104 24.128 19.808 38.656 25.792 28.832 11.968 62.048 12.032 91.072 0 14.432-5.984 27.456-14.656 38.592-25.792l2.624-2.656c4.8-4.704 11.328-8.096 18.432-9.376 7.232-1.216 14.432-0.416 21.088 2.496 2.624 1.12 5.376 1.952 8.128 2.4 4.544 2.752 8.448 6.464 11.424 10.944 3.904 5.888 5.952 12.704 5.984 19.776v7.104c0 31.744 12.384 61.632 34.816 84.128 22.176 22.176 52.8 34.88 84.128 34.88s61.696-12.384 84.128-34.816c22.464-22.464 34.816-52.384 34.816-84.128v-3.84c0-6.912 2.112-13.76 5.984-19.648s9.376-10.496 15.936-13.248c6.976-3.072 14.272-3.936 21.344-2.656 7.104 1.28 13.632 4.672 18.848 9.728l2.144 2.208c11.168 11.168 24.16 19.872 38.656 25.92 28.928 12.032 62.144 12.032 91.136 0 14.496-5.984 27.456-14.688 38.56-25.792 11.168-11.104 19.808-24.128 25.792-38.592 6.048-14.496 9.056-29.856 9.056-45.568s-3.072-31.072-9.12-45.568c-5.984-14.496-14.688-27.488-25.792-38.592l-2.56-2.496c-4.8-4.928-8.128-11.424-9.408-18.528-1.28-7.168-0.416-14.4 2.496-21.056 1.184-2.624 1.984-5.376 2.464-8.256 2.752-4.512 6.464-8.448 10.944-11.424 5.888-3.904 12.736-5.952 19.776-5.984h7.104c31.808 0 61.696-12.384 84.128-34.816 22.464-22.464 34.816-52.384 34.816-84.128s-12.384-61.632-34.816-84.128c-22.112-22.176-52.8-34.88-84.128-34.88h-3.84c-6.976 0-13.76-2.112-19.616-5.984-5.888-3.936-10.496-9.408-13.312-15.936 0-0.096-0.096-0.192-0.16-0.32-2.912-6.656-3.776-13.92-2.496-21.056 1.28-7.168 4.672-13.632 9.728-18.848l2.304-2.304c11.072-11.072 19.776-24 25.792-38.56s9.056-29.856 9.056-45.568-3.072-31.072-9.056-45.568c-6.048-14.528-14.752-27.552-25.792-38.592-11.104-11.104-24.064-19.776-38.56-25.792-29.184-12.032-62.048-12.032-91.072 0-14.528 5.984-27.488 14.688-38.592 25.792l-2.464 2.464c-5.024 4.864-11.52 8.256-18.624 9.536-7.008 1.216-14.336 0.416-20.992-2.496-6.848-2.912-12.352-7.52-16.224-13.408s-5.952-12.736-5.984-19.776v-7.104c0-31.808-12.384-61.632-34.816-84.128-22.528-22.464-52.384-34.88-84.128-34.88zM356.288 173.568c14.4 0 28.608-2.976 41.92-8.896 17.664-6.4 34.496-19.264 46.752-36.288 12.192-17.056 18.88-37.12 19.392-58.112v-4.608c0-13.632 5.312-26.432 14.944-36.032 19.296-19.264 52.8-19.264 72.128 0 9.632 9.632 14.912 22.432 14.912 36.032v7.232c0.064 20.416 6.048 40.192 17.248 57.184 11.264 16.992 27.072 30.208 45.76 38.24 18.752 8.288 39.776 10.816 60.256 7.072 20.576-3.744 39.328-13.408 54.208-28l2.72-2.72c4.864-4.864 10.432-8.608 16.64-11.168 12.384-5.12 26.56-5.184 39.072 0 6.208 2.56 11.776 6.304 16.544 11.072s8.512 10.336 11.104 16.576c2.56 6.208 3.904 12.736 3.904 19.52s-1.344 13.312-3.904 19.52c-2.624 6.24-6.304 11.776-11.072 16.544l-2.56 2.624c-14.848 15.2-24.576 33.952-28.256 54.528-3.744 20.416-1.28 41.376 7.104 60.48 8.032 18.624 21.184 34.4 38.144 45.568 16.96 11.264 36.704 17.248 57.088 17.312h3.936c13.408 0 26.56 5.44 36.032 14.944s14.912 22.432 14.912 36.032-5.312 26.432-14.944 36.096c-9.472 9.472-22.624 14.912-36.032 14.912h-7.232c-20.416 0.064-40.128 6.048-57.152 17.248-16.992 11.264-30.208 27.136-38.24 45.824-1.344 3.136-2.208 6.464-2.56 9.824-6.24 17.248-7.776 35.744-4.512 53.856 3.68 20.48 13.408 39.264 28 54.176l2.816 2.816c4.768 4.768 8.512 10.336 11.072 16.544 2.624 6.304 3.936 12.864 3.936 19.552s-1.344 13.312-3.904 19.52c-2.56 6.24-6.304 11.776-11.072 16.576s-10.336 8.512-16.576 11.072c-12.384 5.184-26.688 5.184-39.008 0-6.24-2.624-11.84-6.336-16.576-11.104l-2.464-2.464c-15.296-14.944-34.048-24.64-54.592-28.352-20.576-3.744-41.568-1.216-60.608 7.232-18.368 7.872-34.208 21.088-45.472 38.048-11.2 16.96-17.216 36.672-17.312 57.024v4c0 13.632-5.312 26.432-14.944 36.096-18.944 18.944-53.088 18.944-72.096 0-9.632-9.632-14.944-22.464-14.944-36.032v-7.232c-0.064-20.48-6.048-40.256-17.312-57.184-11.2-16.96-27.072-30.144-45.76-38.208-3.136-1.344-6.464-2.208-9.824-2.56-17.248-6.24-35.68-7.776-53.856-4.448-20.48 3.68-39.232 13.376-54.176 28l-2.912 2.912c-4.704 4.704-10.24 8.384-16.448 10.944-12.48 5.184-26.72 5.184-39.072 0-6.304-2.624-11.84-6.304-16.576-11.072-4.8-4.8-8.544-10.336-11.104-16.544-2.624-6.304-3.936-12.864-3.936-19.552s1.344-13.248 3.904-19.52c2.624-6.24 6.304-11.84 11.104-16.576l2.56-2.56c14.848-15.2 24.576-33.952 28.256-54.528 3.744-20.48 1.216-41.472-7.232-60.576-6.4-17.728-19.264-34.56-36.352-46.752-17.056-12.192-37.12-18.944-58.112-19.392h-4.608c-13.632 0-26.432-5.312-36.032-14.944s-14.944-22.624-14.944-36.032 5.44-26.56 14.944-36.032c9.632-9.632 22.432-14.944 36.032-14.944h7.232c20.48-0.064 40.192-6.048 57.184-17.312s30.208-27.072 38.208-45.824c8.288-18.752 10.752-39.68 7.008-60.256s-13.408-39.328-28-54.208l-2.816-2.816c-4.768-4.768-8.512-10.336-11.104-16.576-2.56-6.208-3.904-12.8-3.904-19.52s1.344-13.312 3.904-19.552c2.56-6.208 6.304-11.776 11.072-16.544 4.8-4.8 10.336-8.544 16.544-11.104 12.544-5.216 26.624-5.184 39.072 0 6.24 2.56 11.776 6.304 16.576 11.072l2.56 2.56c15.2 14.912 33.952 24.576 54.528 28.256 6.208 1.12 12.384 1.696 18.624 1.696zM826.432 320.512v0z" />
<glyph unicode="&#xe902;" glyph-name="exit" d="M876.48-56.32h-208.288c-19.712 0-35.68 15.968-35.68 35.68s15.968 35.68 35.68 35.68h208.288c18.016 0 35.648 7.328 48.384 20.064 12.96 12.96 20.064 30.112 20.064 48.384v728.992c0 18.272-7.104 35.488-20.064 48.384s-30.368 20.032-48.384 20.032h-208.288c-19.712 0-35.68 15.968-35.68 35.68s15.968 35.68 35.68 35.68h208.288c37.376 0 72.512-14.528 98.88-40.96 26.432-26.464 40.96-61.536 40.96-98.88v-728.928c0-37.312-14.528-72.448-40.96-98.88-26.048-26.048-62.048-40.96-98.88-40.96zM703.232 440.992s0 0.32 0.064 0.416c0.192 0.96 0.352 1.984 0.448 3.008 0.096 1.184 0.192 2.368 0.192 3.52s-0.064 2.368-0.192 3.52c-0.096 1.024-0.256 2.048-0.448 3.008 0 0.16 0 0.32-0.064 0.416-1.44 7.104-4.928 13.472-9.888 18.336l-260.256 260.192c-13.92 13.92-36.544 13.92-50.496 0s-13.92-36.544 0-50.496l199.424-199.36h-538.688c-19.712 0-35.68-15.968-35.68-35.68s15.968-35.68 35.68-35.68h538.624l-199.424-199.36c-13.92-13.92-13.92-36.544 0-50.496 6.976-6.976 16.128-10.432 25.248-10.432s18.272 3.488 25.248 10.432l260.256 260.192c4.96 4.928 8.448 11.264 9.888 18.336z" />
<glyph unicode="&#xe903;" glyph-name="home" d="M956.352 616.704l-422.72 328.768c-12.736 9.92-30.56 9.92-43.264 0l-422.752-328.768c-8.544-6.656-13.568-16.96-13.568-27.808v-610.56c0-19.456 15.776-35.232 35.232-35.232h281.792c19.456 0 35.232 15.776 35.232 35.232v434.432h211.36v-434.432c0-19.456 15.776-35.232 35.232-35.232h281.792c19.456 0 35.232 15.776 35.232 35.232v610.56c0 10.848-5.024 21.152-13.568 27.808zM899.488 13.504h-211.36v434.432c0 19.456-15.776 35.232-35.232 35.232h-281.792c-19.456 0-35.232-15.776-35.232-35.232v-434.432h-211.36v558.144l387.488 301.408 387.488-301.408v-558.144z" />
<glyph unicode="&#xe904;" glyph-name="add" d="M925.792 641.888c-0.096 0.928-0.256 1.856-0.416 2.72 0 0.16 0 0.32-0.064 0.448-1.28 6.496-4.512 12.288-9.024 16.8l-285.792 285.696c-3.744 3.776-8.448 6.656-13.728 8.256 0 0-0.096 0-0.16 0-0.96 0.32-1.952 0.576-2.976 0.768-0.256 0-0.448 0.064-0.704 0.096-0.832 0.16-1.632 0.32-2.464 0.352-1.088 0.096-2.144 0.16-3.264 0.16h-381.184c-34.208 0-66.368-13.312-90.528-37.472s-37.472-56.32-37.472-90.464v-762.528c0-33.696 13.664-66.656 37.472-90.528 24.16-24.16 56.32-37.472 90.528-37.472h571.904c34.144 0 66.304 13.312 90.528 37.472 24.16 24.16 37.472 56.32 37.472 90.528v571.904c0 1.088-0.064 2.208-0.16 3.264zM640 845.664l174.4-174.4h-174.4v174.4zM842.304 22.464c-11.872-11.84-27.584-18.336-44.352-18.336h-571.904c-16.48 0-32.672 6.72-44.288 18.336-11.68 11.68-18.336 27.808-18.336 44.288v762.528c0 16.736 6.496 32.448 18.336 44.288s27.552 18.336 44.288 18.336h348.576v-253.28c0-18.016 14.592-32.672 32.672-32.672h253.28v-539.232c0-16.736-6.496-32.448-18.272-44.288zM655.008 337.728h-110.272v110.272c0 18.016-14.592 32.672-32.672 32.672s-32.672-14.656-32.672-32.672v-110.272h-110.272c-18.080 0-32.672-14.656-32.672-32.672s14.592-32.672 32.672-32.672h110.272v-110.272c0-18.016 14.592-32.672 32.672-32.672s32.672 14.656 32.672 32.672v110.272h110.272c18.080 0 32.672 14.656 32.672 32.672s-14.592 32.672-32.672 32.672z" />
<glyph unicode="&#xe905;" glyph-name="eye" d="M511.936 73.152c-310.688 0-482.496 336.576-489.664 350.88-7.52 15.104-7.52 32.832 0 47.936 7.168 14.336 179.040 350.912 489.728 350.912s482.56-336.576 489.728-350.912c7.52-15.104 7.52-32.832 0-47.936-7.168-14.336-179.008-350.912-489.728-350.912zM131.584 448c41.824-69.824 178.336-267.776 380.352-267.776s338.528 197.952 380.352 267.776c-41.824 69.824-178.336 267.776-380.352 267.776s-338.496-197.952-380.352-267.776zM511.936 273.952c-95.936 0-174.016 78.080-174.016 174.016s78.080 174.016 174.016 174.016 174.016-78.080 174.016-174.016-78.080-174.016-174.016-174.016zM511.936 514.976c-36.928 0-66.912-30.016-66.912-66.912s30.016-66.912 66.912-66.912 66.912 30.016 66.912 66.912-30.016 66.912-66.912 66.912z" />
<glyph unicode="&#xe906;" glyph-name="stack" d="M32.064 652.288l465.664-232.864c4.512-2.24 9.376-3.392 14.272-3.392s9.792 1.12 14.272 3.392l465.664 232.864c10.816 5.44 17.664 16.48 17.664 28.576s-6.816 23.136-17.664 28.576l-465.664 232.768c-8.96 4.512-19.552 4.512-28.576 0l-465.664-232.8c-10.816-5.44-17.664-16.48-17.664-28.576s6.816-23.136 17.664-28.576zM512 877.92l394.24-197.12-394.24-197.12-394.24 197.184 394.24 197.056zM963.392 243.712l-451.392-225.696-451.392 225.696c-15.776 7.84-34.976 1.472-42.848-14.272s-1.472-34.976 14.272-42.848l465.664-232.8c4.512-2.24 9.376-3.392 14.272-3.392s9.792 1.12 14.272 3.392l465.664 232.8c15.776 7.872 22.176 27.072 14.272 42.848s-27.040 22.112-42.848 14.272zM963.392 476.576l-451.392-225.696-451.392 225.696c-15.776 7.84-34.976 1.472-42.848-14.272s-1.472-34.976 14.272-42.848l465.664-232.864c4.512-2.24 9.376-3.392 14.272-3.392s9.792 1.12 14.272 3.392l465.664 232.864c15.776 7.872 22.176 27.072 14.272 42.848s-27.040 22.112-42.848 14.272z" />
<glyph unicode="&#xe907;" glyph-name="grid" d="M406.784 929.792h-348.32c-19.264 0-34.816-15.552-34.816-34.816v-348.32c0-19.264 15.616-34.816 34.816-34.816h348.32c19.264 0 34.816 15.552 34.816 34.816v348.32c0 19.264-15.616 34.816-34.816 34.816zM371.968 581.536h-278.688v278.624h278.624v-278.624zM950.976 524.896c19.264 0 34.816 15.552 34.816 34.816v348.32c0 19.264-15.616 34.816-34.816 34.816h-348.32c-19.264 0-34.816-15.552-34.816-34.816v-348.32c0-19.264 15.616-34.816 34.816-34.816h348.32zM637.536 873.216h278.624v-278.624h-278.624v278.624zM965.536 371.104h-348.32c-19.264 0-34.816-15.552-34.816-34.816v-348.32c0-19.264 15.616-34.816 34.816-34.816h348.32c19.264 0 34.816 15.552 34.816 34.816v348.32c0 19.264-15.616 34.816-34.816 34.816zM930.72 22.784h-278.624v278.624h278.624v-278.624zM406.784 371.104h-348.32c-19.264 0-34.816-15.552-34.816-34.816v-348.32c0-19.264 15.616-34.816 34.816-34.816h348.32c19.264 0 34.816 15.552 34.816 34.816v348.32c0 19.264-15.616 34.816-34.816 34.816zM371.968 22.784h-278.688v278.624h278.624v-278.624z" />
<glyph unicode="&#xe908;" glyph-name="info" d="M512-28.16c-262.56 0-476.16 213.6-476.16 476.16s213.6 476.16 476.16 476.16 476.16-213.6 476.16-476.16-213.6-476.16-476.16-476.16zM512 837.568c-214.784 0-389.568-174.784-389.568-389.568s174.784-389.568 389.568-389.568 389.568 174.752 389.568 389.568-174.752 389.568-389.568 389.568zM512 231.584c-23.904 0-43.264 19.36-43.264 43.264v173.152c0 23.904 19.392 43.264 43.264 43.264s43.264-19.392 43.264-43.264v-173.152c0-23.904-19.392-43.264-43.264-43.264zM512.416 577.856c-23.904 0-43.52 19.392-43.52 43.264s19.136 43.264 43.072 43.264h0.416c23.904 0 43.264-19.392 43.264-43.264s-19.392-43.264-43.264-43.264z" />
<glyph unicode="&#xe909;" glyph-name="wave" d="M656.32-20.832c-15.776 0-29.76 10.080-34.72 25.024l-249.024 747.104-107.168-321.44c-4.96-14.944-18.944-25.024-34.72-25.024h-189.184c-20.224 0-36.608 16.384-36.608 36.608s16.384 36.608 36.608 36.608h162.816l133.536 400.576c4.96 14.944 18.944 25.024 34.72 25.024s29.76-10.080 34.72-25.024l249.024-747.104 107.168 321.44c4.96 14.944 18.944 25.024 34.72 25.024h189.12c20.224 0 36.608-16.384 36.608-36.608s-16.384-36.608-36.608-36.608h-162.752l-133.536-400.576c-4.96-14.944-18.944-25.024-34.72-25.024z" />
<glyph unicode="&#xe90a;" glyph-name="line" d="M920.768 389.568h-817.568c-32.256 0-58.432 26.176-58.432 58.432s26.176 58.432 58.432 58.432h817.6c32.256 0 58.432-26.176 58.432-58.432s-26.112-58.432-58.432-58.432z" />
<glyph unicode="&#xe90b;" glyph-name="book" d="M951.872 887.872h-263.936c-58.784 0-113.984-22.88-155.488-64.416-7.424-7.424-14.24-15.296-20.416-23.552-6.208 8.256-12.992 16.128-20.416 23.552-41.568 41.536-96.832 64.416-155.488 64.416h-263.936c-24.256 0-43.968-19.712-43.968-43.968v-659.776c0-24.32 19.712-43.968 43.968-43.968h307.904c23.136 0 45.824-9.408 62.208-25.76 16.64-16.64 25.76-38.72 25.76-62.208s19.712-43.968 43.968-43.968 43.968 19.648 43.968 43.968 9.152 45.568 25.76 62.208c16.64 16.64 38.72 25.76 62.208 25.76h307.904c24.32 0 43.968 19.648 43.968 43.968v659.776c0 24.256-19.648 43.968-43.968 43.968zM468.032 204.608c-26.464 15.36-56.576 23.488-87.968 23.488h-263.936v571.808h219.904c35.232 0 68.416-13.728 93.28-38.656 24.928-24.928 38.656-58.048 38.656-93.344v-463.36zM907.872 228.096h-263.936c-31.392 0-61.504-8.128-87.968-23.488v463.296c0 35.232 13.728 68.416 38.656 93.344 24.576 24.512 58.528 38.656 93.28 38.656h219.904v-571.808z" />
<glyph unicode="&#xe90c;" glyph-name="hide" d="M441.632 701.044c23.040 5.44 46.688 7.68 70.336 8.032 197.056 0 330.080-193.024 370.88-261.12-18.944-32.16-40.608-62.784-64.672-91.296-18.592-22.016-15.712-54.976 6.4-73.568 9.792-8.192 21.696-12.224 33.536-12.224 14.912 0 29.696 6.336 40.032 18.624 34.72 41.312 65.28 86.368 90.688 133.952 8 14.944 8.192 32.832 0.672 47.968-6.976 13.984-174.592 342.208-477.376 342.208h-1.12c-31.328 0-62.656-3.648-93.184-10.816-28.096-6.56-45.504-34.656-38.912-62.784 6.56-28.064 34.752-45.472 62.784-38.912zM979.744 54.036l-861.696 861.696c-20.384 20.384-53.44 20.384-73.824 0s-20.384-53.44 0-73.824l157.76-157.76c-67.584-60.224-123.712-131.008-166.848-211.456-8-14.944-8.256-32.864-0.672-48.032 6.976-13.984 174.592-342.208 478.4-342.208 80.576 1.344 157.6 23.872 225.44 65.44l167.616-167.616c10.176-10.176 23.552-15.296 36.928-15.296s26.72 5.12 36.928 15.296c20.384 20.384 20.384 53.44 0 73.824zM474.4 411.7l31.84-31.84c-7.424 0.256-14.688 1.856-21.664 4.672-8.128 3.328-15.456 8.128-21.696 14.4s-11.072 13.568-14.336 21.664c-2.816 6.976-4.416 14.272-4.704 21.696l30.56-30.56zM511.968 186.836c-197.024 0-330.080 192.96-370.88 261.056 36.192 61.248 81.344 115.616 134.72 162.368l84.16-84.128c-2.112-3.936-4.096-7.936-5.952-12.032-9.312-20.896-14.272-43.168-14.688-66.112-0.416-22.848 3.744-45.216 12.352-66.624 8.608-21.184 21.152-40.256 37.44-56.48 16.224-16.192 35.168-28.768 56.384-37.28 21.312-8.608 43.776-12.448 66.464-12.352 22.944 0.352 45.216 5.312 66.112 14.688 4.16 1.792 8.128 3.776 12.096 5.952l71.36-71.36c-46.336-23.712-97.952-36.8-149.568-37.696z" />
<glyph unicode="&#xe90d;" glyph-name="border-plus" d="M853.696 913.92h-683.36c-68.512 0-124.256-55.744-124.256-124.256v-683.36c0-68.512 55.744-124.224 124.256-124.224h683.36c68.512 0 124.224 55.744 124.224 124.224v683.36c0 68.512-55.744 124.256-124.224 124.256zM924.672 106.304c0-39.168-31.84-70.976-70.976-70.976h-683.36c-39.168 0-71.008 31.84-71.008 70.976v683.36c0 39.168 31.84 71.008 71.008 71.008h683.36c39.168 0 70.976-31.84 70.976-71.008v-683.36zM707.264 474.624h-168.64v168.64c0 14.688-11.936 26.624-26.624 26.624s-26.624-11.936-26.624-26.624v-168.64h-168.608c-14.688 0-26.624-11.936-26.624-26.624s11.936-26.624 26.624-26.624h168.608v-168.64c0-14.688 11.936-26.624 26.624-26.624s26.624 11.936 26.624 26.624v168.64h168.64c14.688 0 26.624 11.936 26.624 26.624s-11.936 26.624-26.624 26.624z" />
<glyph unicode="&#xe90e;" glyph-name="cross" d="M629.184 453.12l293.696 293.696c32.352 32.352 32.352 84.832 0 117.184s-84.832 32.352-117.184 0l-293.696-293.696-293.696 293.728c-32.352 32.352-84.832 32.352-117.184 0s-32.352-84.832 0-117.184l293.696-293.696-293.696-293.696c-32.352-32.352-32.352-84.832 0-117.184 16.192-16.192 37.376-24.256 58.624-24.256s42.4 8.096 58.624 24.256l293.696 293.696 293.696-293.696c16.192-16.192 37.376-24.256 58.624-24.256s42.4 8.096 58.624 24.256c32.352 32.352 32.352 84.832 0 117.184l-293.696 293.696z" />
<glyph unicode="&#xe90f;" glyph-name="circle-arrow-right" d="M595.648 448l-167.264-167.264 41.824-41.792 209.056 209.056-209.056 209.056-41.824-41.824 167.264-167.264zM512-53.76c-276.672 0-501.76 225.088-501.76 501.76s225.088 501.76 501.76 501.76 501.76-225.088 501.76-501.76-225.088-501.76-501.76-501.76zM512 896.928c-247.552 0-448.928-201.376-448.928-448.928s201.376-448.928 448.928-448.928 448.928 201.408 448.928 448.928-201.376 448.928-448.928 448.928z" />
<glyph unicode="&#xe910;" glyph-name="shape" d="M512.032 205.188c-5.824 0-11.616 1.216-17.056 3.648l-447.232 201.312c-14.912 6.72-24.48 21.504-24.48 37.824s9.568 31.168 24.48 37.888l447.232 201.28c10.816 4.864 23.232 4.928 34.048 0l447.232-201.28c14.912-6.72 24.48-21.568 24.48-37.888s-9.568-31.168-24.48-37.824l-447.232-201.28c-5.376-2.464-11.2-3.648-17.056-3.648zM166.016 447.972l346.016-155.712 346.048 155.712-346.048 155.712-346.016-155.712z" />
<glyph unicode="&#xe911;" glyph-name="redo" d="M771.072 781.76l144.224-142.432c14.080-13.92 14.080-36.448 0-50.336l-144.224-142.4c-14.080-13.92-36.928-13.92-51.008 0s-14.080 36.448 0 50.336c30.368 29.952 9.12 81.6-33.536 81.6h-325.568c-112.832 0-204.352-90.304-204.352-201.792 0-111.424 91.488-201.728 204.352-201.728h336.544c19.904 0 36.032-15.936 36.032-35.584s-16.128-35.584-36.032-35.584h-336.544c-152.672 0-276.416 122.208-276.416 272.96s123.744 272.96 276.416 272.96h325.568c42.656 0 63.84 51.648 33.536 81.6-14.080 13.92-14.080 36.448 0 50.336 14.080 13.92 36.928 13.92 51.008 0z" />
<glyph unicode="&#xe912;" glyph-name="undo" d="M341.568 781.76c14.080-13.92 14.080-36.448 0-50.336-30.368-29.952-9.12-81.6 33.536-81.6h325.568c152.672 0 276.416-122.208 276.416-272.96s-123.744-272.96-276.416-272.96h-336.544c-19.904 0-36.032 15.936-36.032 35.584s16.128 35.584 36.032 35.584h336.544c112.832 0 204.352 90.304 204.352 201.728s-91.488 201.792-204.352 201.792h-325.568c-42.656 0-63.84-51.648-33.536-81.6 14.080-13.92 14.080-36.448 0-50.336-14.080-13.92-36.928-13.92-51.008 0l-144.224 142.4c-14.080 13.92-14.080 36.448 0 50.336l144.224 142.432c14.080 13.92 36.928 13.92 51.008 0z" />
<glyph unicode="&#xe913;" glyph-name="plus" d="M915.2 505.6h-345.6v345.6c0 31.808-25.792 57.6-57.6 57.6s-57.6-25.792-57.6-57.6v-345.6h-345.6c-31.808 0-57.6-25.792-57.6-57.6s25.792-57.6 57.6-57.6h345.6v-345.6c0-31.84 25.792-57.6 57.6-57.6s57.6 25.76 57.6 57.6v345.6h345.6c31.84 0 57.6 25.792 57.6 57.6s-25.76 57.6-57.6 57.6z" />
<glyph unicode="&#xe914;" glyph-name="circle-arrow-left" d="M428.352 448l167.264 167.264-41.824 41.792-209.056-209.056 209.056-209.056 41.824 41.824-167.264 167.264zM512 949.76c276.672 0 501.76-225.088 501.76-501.76s-225.088-501.76-501.76-501.76-501.76 225.088-501.76 501.76 225.088 501.76 501.76 501.76zM512-0.928c247.552 0 448.928 201.376 448.928 448.928s-201.376 448.928-448.928 448.928-448.928-201.376-448.928-448.928 201.408-448.928 448.928-448.928z" />
<glyph unicode="&#xe915;" glyph-name="drag" d="M965.28 424.864c0.608 0.928 1.024 1.888 1.536 2.816 0.832 1.44 1.632 2.816 2.304 4.352 0.576 1.344 0.864 2.72 1.28 4.032 0.352 1.216 0.864 2.464 1.12 3.744 1.088 5.44 1.088 10.944 0 16.384-0.256 1.28-0.704 2.496-1.12 3.744-0.416 1.376-0.704 2.72-1.28 4.032-0.608 1.536-1.472 2.912-2.304 4.352-0.512 0.928-0.928 1.888-1.536 2.816-1.536 2.368-3.328 4.512-5.28 6.464l-125.504 125.504c-16.32 16.32-42.816 16.32-59.2 0-16.32-16.32-16.32-42.816 0-59.2l54.112-54.112h-275.616v275.616l54.112-54.112c8.192-8.192 18.88-12.224 29.6-12.224s21.408 4.096 29.6 12.224c16.32 16.32 16.32 42.816 0 59.2l-125.504 125.504c-1.952 1.952-4.096 3.68-6.4 5.28-0.96 0.672-2.048 1.12-3.072 1.696-1.344 0.768-2.656 1.6-4.096 2.144-1.376 0.576-2.816 0.864-4.192 1.344-1.184 0.352-2.368 0.832-3.584 1.088-5.44 1.088-10.944 1.088-16.384 0-1.216-0.256-2.4-0.704-3.584-1.088-1.44-0.416-2.88-0.704-4.192-1.344-1.44-0.608-2.752-1.44-4.096-2.144-1.024-0.576-2.112-1.024-3.136-1.696-2.304-1.536-4.448-3.264-6.4-5.28l-125.504-125.504c-16.32-16.32-16.32-42.816 0-59.2 16.32-16.32 42.816-16.32 59.2 0l54.112 54.112v-275.616h-275.616l54.112 54.112c16.32 16.32 16.32 42.816 0 59.2s-42.816 16.32-59.2 0l-125.504-125.504c-1.952-1.952-3.68-4.096-5.216-6.4-0.672-0.96-1.12-2.048-1.696-3.072-0.768-1.376-1.6-2.656-2.144-4.16-0.576-1.344-0.864-2.752-1.28-4.16-0.352-1.216-0.832-2.4-1.088-3.648-1.088-5.44-1.088-10.944 0-16.384 0.256-1.28 0.704-2.4 1.088-3.648 0.416-1.376 0.704-2.816 1.28-4.16 0.608-1.44 1.44-2.752 2.144-4.096 0.576-1.024 1.024-2.112 1.696-3.072 1.536-2.304 3.264-4.448 5.216-6.4l125.504-125.504c8.192-8.192 18.88-12.224 29.6-12.224s21.408 4.096 29.6 12.224c16.32 16.32 16.32 42.816 0 59.2l-54.112 54.112h275.616v-275.616l-54.112 54.112c-16.32 16.32-42.816 16.32-59.2 0-16.32-16.32-16.32-42.816 0-59.2l125.504-125.504c1.952-1.984 4.16-3.744 6.464-5.312 0.864-0.608 1.856-0.96 2.752-1.472 1.44-0.832 2.88-1.696 4.416-2.304 1.344-0.576 2.656-0.832 4-1.216 1.28-0.352 2.464-0.864 3.776-1.12 2.72-0.512 5.44-0.832 8.192-0.832s5.472 0.32 8.192 0.832c1.344 0.256 2.496 0.768 3.776 1.12 1.344 0.416 2.72 0.704 4 1.216 1.536 0.672 2.976 1.536 4.448 2.368 0.928 0.512 1.888 0.928 2.752 1.472 2.368 1.536 4.512 3.328 6.496 5.312l125.504 125.504c16.32 16.32 16.32 42.816 0 59.2-16.32 16.32-42.816 16.32-59.2 0l-54.112-54.112v275.616h275.616l-54.112-54.112c-16.32-16.32-16.32-42.816 0-59.2 8.192-8.192 18.88-12.224 29.6-12.224s21.408 4.096 29.6 12.224l125.504 125.504c1.984 1.952 3.744 4.16 5.28 6.464z" />
<glyph unicode="&#xe916;" glyph-name="search" d="M987.84 10.688l-227.264 227.264s-0.352 0.256-0.512 0.448c64.672 73.632 104.032 170.048 104.032 275.456 0 230.464-187.488 417.952-417.952 417.952s-417.984-187.488-417.984-417.952 187.488-417.952 417.952-417.952c105.472 0 201.824 39.36 275.456 104.032 0.16-0.16 0.256-0.352 0.448-0.512l227.264-227.264c5.312-5.312 12.288-8 19.264-8s13.92 2.656 19.264 8c10.656 10.656 10.656 27.904 0 38.56zM446.112 150.432c-200.384 0-363.424 163.008-363.424 363.424s163.008 363.456 363.424 363.456 363.424-163.008 363.424-363.424-163.008-363.424-363.424-363.424z" />
<glyph unicode="&#xe917;" glyph-name="bin" d="M864.928 722.496h-156.832v39.232c0 31.424-12.224 60.992-34.464 83.136-22.208 22.208-51.776 34.464-83.136 34.464h-156.832c-31.424 0-60.992-12.224-83.136-34.464-22.208-22.208-34.464-51.776-34.464-83.136v-39.232h-156.832c-21.664 0-39.232-17.568-39.232-39.232s17.568-39.232 39.232-39.232h39.232v-509.76c0-31.392 12.224-60.992 34.464-83.136 22.208-22.208 51.776-34.464 83.136-34.464h392.128c31.392 0 60.992 12.224 83.136 34.464s34.464 51.776 34.464 83.136v509.76h39.232c21.664 0 39.232 17.568 39.232 39.232s-17.568 39.232-39.232 39.232zM394.336 761.696c0 10.336 4.192 20.416 11.456 27.712 7.328 7.264 17.408 11.456 27.712 11.456h156.832c10.304 0 20.416-4.192 27.712-11.456 7.328-7.328 11.456-17.408 11.456-27.712v-39.232h-235.264v39.232zM747.264 134.304c0-10.304-4.192-20.416-11.456-27.712-7.328-7.328-17.408-11.456-27.712-11.456h-392.128c-10.336 0-20.416 4.192-27.712 11.456-7.264 7.328-11.456 17.408-11.456 27.712v509.76h470.528v-509.76zM433.568 212.736c21.664 0 39.232 17.568 39.232 39.232v235.264c0 21.664-17.568 39.232-39.232 39.232s-39.232-17.568-39.232-39.232v-235.264c0-21.664 17.568-39.232 39.232-39.232zM590.432 212.736c21.664 0 39.232 17.568 39.232 39.232v235.264c0 21.664-17.568 39.232-39.232 39.232s-39.232-17.568-39.232-39.232v-235.264c0-21.664 17.568-39.232 39.232-39.232z" />
<glyph unicode="&#xe918;" glyph-name="border-cross" d="M853.696 888.32h-683.36c-68.512 0-124.256-55.744-124.256-124.256v-683.36c0-68.512 55.744-124.224 124.256-124.224h683.36c68.512 0 124.224 55.744 124.224 124.224v683.36c0 68.512-55.744 124.256-124.224 124.256zM924.672 80.704c0-39.168-31.84-70.976-70.976-70.976h-683.36c-39.168 0-71.008 31.84-71.008 70.976v683.36c0 39.168 31.84 71.008 71.008 71.008h683.36c39.168 0 70.976-31.84 70.976-71.008v-683.36zM668.864 303.168l-119.232 119.232 119.232 119.232c10.4 10.4 10.4 27.232 0 37.632s-27.232 10.4-37.632 0l-119.232-119.232-119.232 119.232c-10.4 10.4-27.232 10.4-37.632 0s-10.4-27.232 0-37.632l119.232-119.232-119.232-119.232c-10.4-10.4-10.4-27.232 0-37.632s27.232-10.4 37.632 0l119.232 119.232 119.232-119.232c10.4-10.4 27.232-10.4 37.632 0s10.4 27.232 0 37.632z" />
<glyph unicode="&#xe919;" glyph-name="tick" d="M387.648 93.6v0c-25.536 0-49.92 10.496-67.52 28.928l-248.672 261.12c-35.52 37.312-34.048 96.32 3.232 131.904 37.28 35.488 96.352 34.112 131.84-3.232l181.152-190.272 429.888 451.392c35.52 37.312 94.624 38.752 131.904 3.232s38.72-94.56 3.232-131.904l-497.408-522.24c-17.6-18.432-41.984-28.928-67.52-28.928z" />
<glyph unicode="&#xe91a;" glyph-name="line-arrow-left" d="M498 772.667l-346-346 346-346-76-76-422 422 422 422z" />
<glyph unicode="&#xe91b;" glyph-name="dots-horizontal-triple" d="M512 358.4c-56.554 0-102.4 45.846-102.4 102.4s45.846 102.4 102.4 102.4v0c56.554 0 102.4-45.846 102.4-102.4s-45.846-102.4-102.4-102.4v0zM512 665.6c-56.554 0-102.4 45.846-102.4 102.4s45.846 102.4 102.4 102.4v0c56.554 0 102.4-45.846 102.4-102.4s-45.846-102.4-102.4-102.4v0zM512 51.2c-56.554 0-102.4 45.846-102.4 102.4s45.846 102.4 102.4 102.4v0c56.554 0 102.4-45.846 102.4-102.4s-45.846-102.4-102.4-102.4v0z" />
<glyph unicode="&#xe91c;" glyph-name="reload-alt" d="M768 384c0-141.248-114.752-256-256-256s-256 114.752-256 256 114.752 256 256 256h128l0.736-128.64 192.384 192.64-192.384 192v-128h-128.736c-212 0-384-172-384-384s172-384 384-384 384 172 384 384h-128z" />
<glyph unicode="&#xe91d;" glyph-name="rotate" d="M190.912 423.456l130.88 130.88h-76.704c0.704 1.92 1.44 3.808 2.144 5.696 45.504 115.264 157.888 196.8 289.28 196.8 171.712 0 310.912-139.2 310.912-310.88 0-171.712-139.2-310.912-310.912-310.912-126.272 0-234.976 75.328-283.616 183.456-0.48 0.992-0.768 2.112-1.248 3.168l-83.36-82.848c0.576-0.96 0.96-2.048 1.536-3.072 0.128-0.224 0.256-0.448 0.384-0.64 73.568-127.104 211.008-212.576 368.416-212.576 234.944 0 425.408 190.464 425.408 425.408s-190.496 425.472-425.44 425.472c-196.416 0-361.696-133.056-410.656-313.984-0.48-1.664-0.64-3.424-1.024-5.088h-66.912l130.912-130.88z" />
</font>
</defs>
</svg>
